<svg width="323.05" height="39.17846430681172" viewBox="0 0 370.00000000000006 44.872409204520466" class="css-1j8o68f"><defs id="SvgjsDefs4420"></defs><g id="SvgjsG4421" featurekey="ZxbabI-0" transform="matrix(0.9572781409332645,0,0,0.9572781409332645,-12.863903394936914,-25.427222242393665)" fill="#343a40"><path xmlns="http://www.w3.org/2000/svg" fill="#343a40" d="M83.75,45.312h-0.002h-0.002h-2.809V42.5c0-6.834-8.648-12.188-19.688-12.188h-2.908  c-0.436-2.137-2.327-3.75-4.592-3.75h-7.5c-2.265,0-4.156,1.613-4.592,3.75H38.75c-11.04,0-19.688,5.354-19.688,12.188v2.812H16.25  c-1.551,0-2.812,1.262-2.812,2.812s1.262,2.812,2.812,2.812h2.812v15.938c0,0.008,0.004,0.011,0.004,0.019  c0.001,1.747,0.683,3.388,1.917,4.623c1.239,1.237,2.888,1.921,4.642,1.921h48.75c3.618,0,6.562-2.944,6.562-6.562V50.938h2.809  h0.002h0.002c1.551,0,2.812-1.262,2.812-2.812S85.301,45.312,83.75,45.312z M46.25,28.438h7.5c1.221,0,2.252,0.785,2.641,1.875  H43.609C43.998,29.223,45.029,28.438,46.25,28.438z M38.75,32.188h22.5c9.274,0,16.908,4.127,17.73,9.375H21.02  C21.842,36.314,29.476,32.188,38.75,32.188z M16.25,49.062c-0.517,0-0.938-0.421-0.938-0.938s0.421-0.938,0.938-0.938h2.812v1.875  H16.25z M74.375,71.562h-48.75c-1.252,0-2.43-0.487-3.316-1.371c-0.884-0.885-1.37-2.062-1.37-3.316c0-0.004-0.002-0.006-0.002-0.01  V43.438h58.125v2.794c0,0.008-0.004,0.011-0.004,0.019s0.004,0.011,0.004,0.019v3.713c0,0.008-0.004,0.011-0.004,0.019  s0.004,0.011,0.004,0.019v16.856C79.062,69.461,76.96,71.562,74.375,71.562z M83.75,49.062h-0.002h-0.002h-2.809v-1.875h2.809h0.002  h0.002c0.517,0,0.938,0.421,0.938,0.938S84.267,49.062,83.75,49.062z"></path><ellipse xmlns="http://www.w3.org/2000/svg" fill="#343a40" cx="40.625" cy="52.812" rx="1.875" ry="2.812"></ellipse><ellipse xmlns="http://www.w3.org/2000/svg" fill="#343a40" cx="59.375" cy="52.812" rx="1.875" ry="2.812"></ellipse><path xmlns="http://www.w3.org/2000/svg" fill="#343a40" d="M59.375,57.5h-18.75c-0.586,0-1.137,0.274-1.492,0.74c-0.354,0.467-0.471,1.072-0.313,1.637  c0.079,0.285,2.049,6.998,11.181,6.998c9.133,0,11.102-6.713,11.182-6.998c0.156-0.564,0.041-1.17-0.315-1.637  C60.514,57.774,59.961,57.5,59.375,57.5z"></path></g><g id="SvgjsG4422" featurekey="91VAEh-0" transform="matrix(2.2635403219887493,0,0,2.2635403219887493,85.56350729418062,-4.910263661208086)" fill="#343a40"><path d="M10.22 8.94 c0 0.57334 -0.11 1.11 -0.33 1.61 s-0.51666 0.93666 -0.89 1.31 s-0.81 0.66668 -1.31 0.88002 s-1.0367 0.32 -1.61 0.32 l-2.94 0 l0 6.36 c0 0.16 -0.05666 0.29666 -0.17 0.41 s-0.25 0.17 -0.41 0.17 c-0.17334 0 -0.31668 -0.05666 -0.43002 -0.17 s-0.17 -0.25 -0.17 -0.41 l0 -14.02 c0 -0.16 0.05666 -0.29666 0.17 -0.41 s0.25668 -0.17 0.43002 -0.17 l3.52 0 c0.57334 0 1.11 0.10666 1.61 0.32 s0.93666 0.50668 1.31 0.88002 s0.67 0.81 0.89 1.31 s0.33 1.0367 0.33 1.61 z M9.04 8.94 c0 -0.4 -0.07666 -0.77998 -0.23 -1.14 s-0.36334 -0.67666 -0.63 -0.95 s-0.58 -0.48668 -0.94 -0.64002 s-0.74666 -0.23 -1.16 -0.23 l-2.94 0 l0 5.9 l2.94 0 c0.41334 0 0.8 -0.07666 1.16 -0.23 s0.67334 -0.36334 0.94 -0.63 s0.47666 -0.58 0.63 -0.94 s0.23 -0.74 0.23 -1.14 z M27.56 12.4 c0 1.0533 -0.2 2.04 -0.6 2.96 s-0.94334 1.7233 -1.63 2.41 s-1.49 1.23 -2.41 1.63 s-1.9 0.6 -2.94 0.6 c-1.0533 0 -2.04 -0.2 -2.96 -0.6 s-1.7233 -0.94334 -2.41 -1.63 s-1.23 -1.49 -1.63 -2.41 s-0.6 -1.9067 -0.6 -2.96 c0 -1.04 0.2 -2.02 0.6 -2.94 s0.94334 -1.7233 1.63 -2.41 s1.49 -1.23 2.41 -1.63 s1.9067 -0.6 2.96 -0.6 c1.04 0 2.02 0.2 2.94 0.6 s1.7233 0.94334 2.41 1.63 s1.23 1.49 1.63 2.41 s0.6 1.9 0.6 2.94 z M26.4 12.4 c0 -0.88 -0.17 -1.71 -0.51 -2.49 s-0.8 -1.46 -1.38 -2.04 s-1.26 -1.04 -2.04 -1.38 s-1.61 -0.51 -2.49 -0.51 s-1.7133 0.17 -2.5 0.51 s-1.47 0.8 -2.05 1.38 s-1.04 1.26 -1.38 2.04 s-0.51 1.61 -0.51 2.49 c0 0.89334 0.17 1.73 0.51 2.51 s0.8 1.46 1.38 2.04 s1.2633 1.04 2.05 1.38 s1.62 0.51 2.5 0.51 s1.71 -0.17 2.49 -0.51 s1.46 -0.8 2.04 -1.38 s1.04 -1.26 1.38 -2.04 s0.51 -1.6167 0.51 -2.51 z M38.94 5.4 c0 0.16 -0.05664 0.29666 -0.16998 0.41 s-0.25 0.17 -0.41 0.17 l-3.54 0 l0 13.44 c0 0.16 -0.05666 0.29666 -0.17 0.41 s-0.25 0.17 -0.41 0.17 c-0.17334 0 -0.31668 -0.05666 -0.43002 -0.17 s-0.17 -0.25 -0.17 -0.41 l0 -13.44 l-3.54 0 c-0.16 0 -0.29666 -0.05666 -0.41 -0.17 s-0.17 -0.25 -0.17 -0.41 s0.05666 -0.29666 0.17 -0.41 s0.25 -0.17 0.41 -0.17 l8.26 0 c0.16 0 0.29666 0.05666 0.41 0.17 s0.17 0.25 0.17 0.41 z M47.84 19.42 c0 0.16 -0.05666 0.29666 -0.17 0.41 s-0.25668 0.17 -0.43002 0.17 l-5.34 0 c-0.16 0 -0.29666 -0.05666 -0.41 -0.17 s-0.17 -0.25 -0.17 -0.41 l0 -14.02 c0 -0.16 0.05666 -0.29666 0.17 -0.41 s0.25 -0.17 0.41 -0.17 s0.29666 0.05666 0.41 0.17 s0.17 0.25 0.17 0.41 l0 13.44 l4.76 0 c0.17334 0 0.31668 0.05666 0.43002 0.17 s0.17 0.25 0.17 0.41 z M61.58 14.219999999999999 c0 0.8 -0.15336 1.55 -0.46002 2.25 s-0.72 1.31 -1.24 1.83 s-1.1333 0.93334 -1.84 1.24 s-1.46 0.46 -2.26 0.46 s-1.55 -0.15334 -2.25 -0.46 s-1.31 -0.72 -1.83 -1.24 s-0.93334 -1.13 -1.24 -1.83 s-0.46 -1.45 -0.46 -2.25 l0 -8.82 c0 -0.16 0.05666 -0.29666 0.17 -0.41 s0.25668 -0.17 0.43002 -0.17 c0.16 0 0.29666 0.05666 0.41 0.17 s0.17 0.25 0.17 0.41 l0 8.82 c0 0.64 0.12 1.2367 0.36 1.79 s0.57 1.04 0.99 1.46 s0.90666 0.75 1.46 0.99 s1.15 0.36 1.79 0.36 s1.24 -0.12 1.8 -0.36 s1.05 -0.57 1.47 -0.99 s0.75 -0.90666 0.99 -1.46 s0.36 -1.15 0.36 -1.79 l0 -8.82 c0 -0.16 0.05666 -0.29666 0.17 -0.41 s0.25 -0.17 0.41 -0.17 s0.3 0.05666 0.42 0.17 s0.18 0.25 0.18 0.41 l0 8.82 z M78.16 17.759999999999998 c-0.73334 0.72 -1.5633 1.2734 -2.49 1.6601 s-1.9033 0.58 -2.93 0.58 c-1.0667 0 -2.0634 -0.2 -2.99 -0.6 s-1.74 -0.95 -2.44 -1.65 s-1.25 -1.5133 -1.65 -2.44 s-0.6 -1.9233 -0.6 -2.99 c0 -1.0533 0.2 -2.0366 0.6 -2.95 s0.95 -1.7067 1.65 -2.38 s1.5133 -1.2033 2.44 -1.59 s1.9233 -0.58 2.99 -0.58 c1.0267 0 2.0034 0.19334 2.93 0.58 s1.7567 0.94 2.49 1.66 c0.10666 0.10666 0.16 0.24332 0.16 0.40998 s-0.05334 0.30332 -0.16 0.40998 c-0.12 0.12 -0.26 0.18 -0.42 0.18 s-0.3 -0.06 -0.42 -0.18 c-0.61334 -0.61334 -1.3133 -1.0833 -2.1 -1.41 s-1.6133 -0.49 -2.48 -0.49 c-0.90666 0 -1.7533 0.16334 -2.54 0.49 s-1.4733 0.77332 -2.06 1.34 s-1.05 1.2367 -1.39 2.01 s-0.51 1.6067 -0.51 2.5 c0 0.90666 0.17 1.7533 0.51 2.54 s0.80334 1.4733 1.39 2.06 s1.2733 1.05 2.06 1.39 s1.6333 0.51 2.54 0.51 c0.86666 0 1.6933 -0.16 2.48 -0.48 s1.4867 -0.79334 2.1 -1.42 c0.12 -0.10666 0.26 -0.16 0.42 -0.16 s0.3 0.05334 0.42 0.16 c0.10666 0.12 0.16 0.26 0.16 0.42 s-0.05334 0.3 -0.16 0.42 z M91.02 19.82 c-0.10666 0.12 -0.24666 0.18004 -0.42 0.18004 c-0.13334 0 -0.26668 -0.05334 -0.40002 -0.16 l-7.22 -6.92 l0 6.5 c0 0.16 -0.05666 0.29666 -0.17 0.41 s-0.25 0.17 -0.41 0.17 s-0.29666 -0.05666 -0.41 -0.17 s-0.17 -0.25 -0.17 -0.41 l0 -14.02 c0 -0.16 0.05666 -0.29666 0.17 -0.41 s0.25 -0.17 0.41 -0.17 s0.29666 0.05666 0.41 0.17 s0.17 0.25 0.17 0.41 l0 6.5 l7.22 -6.92 c0.12 -0.10666 0.26 -0.16 0.42 -0.16 s0.29334 0.06 0.4 0.18 c0.12 0.10666 0.17666 0.24332 0.17 0.40998 s-0.06332 0.30332 -0.16998 0.40998 l-6.88 6.58 l6.88 6.6 c0.10666 0.10666 0.16 0.24 0.16 0.4 s-0.05334 0.3 -0.16 0.42 z M94.94 19.12 c0 0.24 -0.08666 0.44666 -0.26 0.62 s-0.38 0.26 -0.62 0.26 s-0.44666 -0.08666 -0.62 -0.26 s-0.26 -0.38 -0.26 -0.62 c0 -0.25334 0.08334 -0.46 0.25 -0.62 s0.37666 -0.24 0.63 -0.24 s0.46334 0.08 0.63 0.24 s0.25 0.36666 0.25 0.62 z M112.80000000000001 19.42 c0 0.16 -0.05662 0.29666 -0.16996 0.41 s-0.25 0.17 -0.41 0.17 s-0.29666 -0.05666 -0.41 -0.17 s-0.17 -0.25 -0.17 -0.41 l0 -11.72 l-5.82 11.98 c-0.05334 0.09334 -0.12668 0.17 -0.22002 0.23 s-0.19334 0.09 -0.3 0.09 s-0.20666 -0.03 -0.3 -0.09 s-0.16668 -0.13666 -0.22002 -0.23 l-5.82 -11.98 l0 11.72 c0 0.16 -0.05666 0.29666 -0.17 0.41 s-0.25 0.17 -0.41 0.17 s-0.29666 -0.05666 -0.41 -0.17 s-0.17 -0.25 -0.17 -0.41 l0 -14.02 c0 -0.16 0.05666 -0.29666 0.17 -0.41 s0.25 -0.17 0.41 -0.17 c0.10666 0 0.21 0.02666 0.31 0.08 s0.17 0.13334 0.21 0.24 l6.4 12.96 l6.4 -12.96 c0.10666 -0.21334 0.28 -0.32 0.52 -0.32 c0.16 0 0.29666 0.05666 0.41 0.17 s0.17 0.25 0.17 0.41 l0 14.02 z M125.66000000000001 5.4 c0 0.12 -0.02666 0.21334 -0.08 0.28 l-4.58 8.2 l0 5.54 c0 0.16 -0.05666 0.29666 -0.17 0.41 s-0.25 0.17 -0.41 0.17 s-0.29666 -0.05666 -0.41 -0.17 s-0.17 -0.25 -0.17 -0.41 l0 -5.54 l-4.58 -8.2 c-0.05334 -0.06666 -0.08 -0.16 -0.08 -0.28 c0 -0.16 0.05666 -0.29666 0.17 -0.41 s0.25 -0.17 0.41 -0.17 c0.24 0 0.41334 0.1 0.52 0.3 l4.14 7.4 l4.14 -7.4 c0.10666 -0.2 0.28 -0.3 0.52 -0.3 c0.16 0 0.29666 0.05666 0.41 0.17 s0.17 0.25 0.17 0.41 z"></path></g></svg>
